Coordinates
version=1
nRows=14
nColumns=33
inDegrees=yes

Units are S.I. units (second, meters, Newtons, ...)
Angles are in degrees.

endheader
time	ground_thorax_rot_x	ground_thorax_rot_y	ground_thorax_rot_z	ground_thorax_tx	ground_thorax_ty	ground_thorax_tz	clav_prot_r	clav_elev_r	scapula_abduction_r	scapula_elevation_r	scapula_upward_rot_r	scapula_winging_r	shoulder_elv_r	plane_of_elev_r	axial_rot_r	elbow_flexion_r	pro_sup_r	wrist_flex_r	wrist_dev_r	clav_prot_l	clav_elev_l	scapula_abduction_l	scapula_elevation_l	scapula_upward_rot_l	scapula_winging_l	shoulder_elv_l	plane_of_elev_l	axial_rot_l	elbow_flexion_l	pro_sup_l	wrist_flex_l	wrist_dev_l
      0.71000000	     23.73345716	     38.39985200	      1.59986537	      0.02689933	      1.00754739	     -0.04853265	    -22.87651731	     31.24646789	    -24.76676532	     21.87453065	     45.00000000	    -12.42772989	     -7.15489232	    -90.00000000	     14.43707839	     74.39853477	     10.66356832	     42.12887405	    -22.96180148	     17.33198077	     -2.93774745	    -45.00000000	     -1.05407670	     10.48522772	     21.92071165	     15.28137682	    -52.15295160	    -25.97006698	     64.13329582	     34.18154829	     -3.11498427	    -24.99999983
      0.72000000	     23.81909970	     38.36988838	      1.59821723	      0.02690352	      1.00765932	     -0.04818129	    -22.87778467	     31.24538101	    -24.76806160	     21.87357859	     45.00000000	    -12.42877867	     -6.95382489	    -90.00000000	     14.23652573	     74.80732201	     10.72176125	     40.54796711	    -22.32945768	     17.40450811	     -3.53049353	    -45.00000000	     -0.64794418	     10.27184707	     21.73646806	     15.86533781	    -52.32166231	    -26.25197502	     64.45412088	     34.39507649	     -2.89040516	    -24.99999983
      0.73000000	     23.77195680	     38.37430400	      1.66119249	      0.02688229	      1.00729934	     -0.04822224	    -22.85993690	     31.23815652	    -24.72339010	     21.86980468	     45.00000000	    -12.42297315	     -6.91070028	    -90.00000000	     14.19341033	     74.86511648	     10.72709944	     40.56260889	    -22.33436219	     17.39652723	     -3.55896730	    -45.00000000	     -0.61763048	     10.30162877	     21.72278890	     15.87979548	    -52.26387071	    -26.25085405	     64.44944761	     34.39422384	     -2.88983247	    -24.99999983
      0.74000000	     23.73641895	     38.28982587	      1.75830681	      0.02684271	      1.00714486	     -0.04809811	    -22.83776388	     31.19767271	    -24.61992486	     21.83890940	     45.00000000	    -12.42572909	     -6.82291443	    -90.00000000	     14.10565270	     75.01750804	     10.75473075	     40.60732360	    -22.32671507	     17.40246724	     -3.63520315	    -45.00000000	     -0.56145342	     10.28781969	     21.69791819	     15.91493499	    -52.21015396	    -26.27825003	     64.37130758	     34.39538485	     -2.87401727	    -24.99999983
      0.75000000	     23.69096249	     38.29355604	      1.81017182	      0.02683770	      1.00680872	     -0.04817147	    -22.80915022	     31.20046058	    -24.56837930	     21.84515733	     45.00000000	    -12.41406960	     -6.78042126	    -90.00000000	     14.06316651	     75.06027967	     10.75802382	     40.62026459	    -22.32724413	     17.39006660	     -3.67151391	    -45.00000000	     -0.52007689	     10.33603746	     21.68023190	     15.94953531	    -52.13307493	    -26.26818343	     64.38497157	     34.38856960	     -2.87898791	    -24.99999983
      0.76000000	     24.13056880	     38.22403132	      1.57281224	      0.02675148	      1.00678960	     -0.04759797	    -22.79504429	     31.28305335	    -24.65639058	     21.91754045	     45.00000000	    -12.37985299	     -6.37412292	    -90.00000000	     13.65739140	     75.50426652	     11.18280225	     40.73852373	    -21.77302543	     17.59746721	     -4.56760472	    -45.00000000	     -0.00130532	      9.66183484	     21.40826352	     16.54340628	    -51.83409661	    -26.23582991	     64.62687368	     34.00236886	     -2.93510842	    -24.99999983
      0.77000000	     24.07232682	     38.25176010	      1.65946539	      0.02668662	      1.00657908	     -0.04773655	    -22.76492501	     31.28050926	    -24.59275856	     21.91967072	     45.00000000	    -12.36854855	     -6.32988681	    -90.00000000	     13.61316136	     75.55622731	     11.17826208	     40.74636179	    -21.78085141	     17.58144000	     -4.59849360	    -45.00000000	      0.04033616	      9.72525976	     21.39001704	     16.56631814	    -51.73715106	    -26.23430581	     64.66639429	     33.99317909	     -2.93872572	    -24.99999983
      0.78000000	     24.30993090	     38.26730159	      1.63443255	      0.02653428	      1.00635455	     -0.04723989	    -22.74496726	     31.41109103	    -24.73615139	     22.03382927	     45.00000000	    -12.31855563	     -6.06497840	    -90.00000000	     13.34902448	     76.13072742	     11.23890349	     40.28997704	    -21.31362619	     17.81883413	     -5.24208542	    -45.00000000	      0.32273207	      8.91393732	     21.20895023	     17.45561947	    -51.32434530	    -26.64744594	     65.09203459	     33.32176080	     -2.57606808	    -24.99999983
      0.79000000	     24.24359082	     38.30819197	      1.73436143	      0.02644282	      1.00620197	     -0.04738367	    -22.71501489	     31.40402818	    -24.66627506	     22.03209600	     45.00000000	    -12.30871875	     -6.01913722	    -90.00000000	     13.30318894	     76.19187866	     11.23395117	     40.30311209	    -21.32244576	     17.79877848	     -5.27517023	    -45.00000000	      0.37092900	      8.99416590	     21.18770542	     17.47426644	    -51.20264962	    -26.63977734	     65.14488561	     33.30927040	     -2.58243232	    -24.99999983
      0.80000000	     24.20987457	     38.22212651	      1.77689960	      0.02628019	      1.00580590	     -0.04730210	    -22.67619034	     31.36606744	    -24.53574987	     22.00553023	     45.00000000	    -12.30281639	     -5.91849013	    -90.00000000	     13.20260602	     76.53961595	     11.22744463	     40.34280592	    -21.30174312	     17.79573009	     -5.32299112	    -45.00000000	      0.41276515	      9.00999637	     21.17250409	     17.58168671	    -51.04900083	    -26.68163291	     65.25443102	     33.22451579	     -2.53647031	    -24.99999983
      0.81000000	     24.14382663	     38.28617660	      1.88592786	      0.02619222	      1.00578488	     -0.04746456	    -22.64932382	     31.35463396	    -24.46597900	     21.99956044	     45.00000000	    -12.29565074	     -5.87065665	    -90.00000000	     13.15477798	     76.61108708	     11.22052944	     40.34970067	    -21.30387093	     17.77317399	     -5.37177564	    -45.00000000	      0.47657917	      9.10199202	     21.14260409	     17.59524186	    -50.89845280	    -26.67373599	     65.34027322	     33.20383620	     -2.54278551	    -24.99999983
      0.82000000	     24.58136791	     38.42710917	      1.73390186	      0.02595660	      1.00547884	     -0.04679822	    -22.67234428	     31.56873970	    -24.81416511	     22.17890595	     45.00000000	    -12.23853754	     -5.45878129	    -90.00000000	     12.74398341	     77.52226073	     10.87580333	     39.32291291	    -20.18294888	     18.19912426	     -6.33520879	    -45.00000000	      0.81973733	      7.61155575	     20.87274946	     18.98067273	    -49.98677861	    -27.02782784	     66.14507334	     31.39292908	     -1.16126748	    -24.99999983
      0.83000000	     24.50300071	     38.49842722	      1.86078795	      0.02585601	      1.00540173	     -0.04694910	    -22.63786983	     31.55364654	    -24.72335664	     22.17097810	     45.00000000	    -12.22930540	     -5.40079169	    -90.00000000	     12.68599868	     77.59963011	     10.86737925	     39.34014490	    -20.19625190	     18.17176362	     -6.37944384	    -45.00000000	      0.88668975	      7.72541848	     20.84265597	     18.99741008	    -49.81887676	    -27.01461851	     66.22457386	     31.37399110	     -1.17122050	    -24.99999983
      0.84000000	     24.71837469	     38.61353637	      1.62800626	      0.02557204	      1.00505359	     -0.04668593	    -22.71514657	     31.51792117	    -24.82724596	     22.12912678	     45.00000000	    -12.27274969	     -5.15326206	    -90.00000000	     12.43978770	     78.25454838	     10.35614830	     38.82460758	    -19.68441051	     18.46506276	     -6.79520194	    -45.00000000	      0.90862590	      6.64294495	     20.75571011	     20.00573206	    -48.68231190	    -27.26076187	     66.70134842	     29.39330347	      0.27299333	    -24.99999983
